HIERARCHY
ROOT Hips
{
	OFFSET 0.00000 0.00000 0.00000
	CHANNELS 6 Xposition Yposition Zposition Zrotation Yrotation Xrotation 
	JOINT LHipJoint
	{
		OFFSET 0 0 0
		CHANNELS 3 Zrotation Yrotation Xrotation
		JOINT LeftUpLeg
		{
			OFFSET 1.75344 -1.53157 0.77399
			CHANNELS 3 Zrotation Yrotation Xrotation
			JOINT LeftLeg
			{
				OFFSET 2.25415 -6.19323 0.00000
				CHANNELS 3 Zrotation Yrotation Xrotation
				JOINT LeftFoot
				{
					OFFSET 2.30342 -6.32861 0.00000
					CHANNELS 3 Zrotation Yrotation Xrotation
					JOINT LeftToeBase
					{
						OFFSET 0.10958 -0.30108 1.49206
						CHANNELS 3 Zrotation Yrotation Xrotation
						End Site
						{
							OFFSET 0.00000 -0.00000 0.77783
						}
					}
				}
			}
		}
	}
	JOINT RHipJoint
	{
		OFFSET 0 0 0
		CHANNELS 3 Zrotation Yrotation Xrotation
		JOINT RightUpLeg
		{
			OFFSET -1.81912 -1.53156 0.77399
			CHANNELS 3 Zrotation Yrotation Xrotation
			JOINT RightLeg
			{
				OFFSET -2.22882 -6.12365 0.00000
				CHANNELS 3 Zrotation Yrotation Xrotation
				JOINT RightFoot
				{
					OFFSET -2.21943 -6.09785 0.00000
					CHANNELS 3 Zrotation Yrotation Xrotation
					JOINT RightToeBase
					{
						OFFSET -0.18931 -0.52012 1.59379
						CHANNELS 3 Zrotation Yrotation Xrotation
						End Site
						{
							OFFSET -0.00000 -0.00000 0.84686
						}
					}
				}
			}
		}
	}
	JOINT LowerBack
	{
		OFFSET 0 0 0
		CHANNELS 3 Zrotation Yrotation Xrotation
		JOINT Spine
		{
			OFFSET -0.00200 1.66634 -0.14248
			CHANNELS 3 Zrotation Yrotation Xrotation
			JOINT Spine1
			{
				OFFSET -0.00875 1.64542 0.09514
				CHANNELS 3 Zrotation Yrotation Xrotation
				JOINT Neck
				{
					OFFSET 0 0 0
					CHANNELS 3 Zrotation Yrotation Xrotation
					JOINT Neck1
					{
						OFFSET 0.02257 1.59605 0.00839
						CHANNELS 3 Zrotation Yrotation Xrotation
						JOINT Head
						{
							OFFSET -0.10214 1.57530 -0.23335
							CHANNELS 3 Zrotation Yrotation Xrotation
							End Site
							{
								OFFSET -0.03588 1.60717 -0.08062
							}
						}
					}
				}
				JOINT LeftShoulder
				{
					OFFSET 0 0 0
					CHANNELS 3 Zrotation Yrotation Xrotation
					JOINT LeftArm
					{
						OFFSET 2.54983 1.10186 0.40078
						CHANNELS 3 Zrotation Yrotation Xrotation
						JOINT LeftForeArm
						{
							OFFSET 4.28840 -0.00000 0.00000
							CHANNELS 3 Zrotation Yrotation Xrotation
							JOINT LeftHand
							{
								OFFSET 3.06552 -0.00000 -0.00000
								CHANNELS 3 Zrotation Yrotation Xrotation
								JOINT LeftFingerBase
								{
									OFFSET 0 0 0
									CHANNELS 3 Zrotation Yrotation Xrotation
									JOINT LeftHandIndex1
									{
										OFFSET 0.75304 -0.00000 0.00000
										CHANNELS 3 Zrotation Yrotation Xrotation
										End Site
										{
											OFFSET 0.60712 -0.00000 0.00000
										}
									}
								}
								JOINT LThumb
								{
									OFFSET 0 0 0
									CHANNELS 3 Zrotation Yrotation Xrotation
									End Site
									{
										OFFSET 0.61639 -0.00000 0.61639
									}
								}
							}
						}
					}
				}
				JOINT RightShoulder
				{
					OFFSET 0 0 0
					CHANNELS 3 Zrotation Yrotation Xrotation
					JOINT RightArm
					{
						OFFSET -2.60909 1.35448 0.21802
						CHANNELS 3 Zrotation Yrotation Xrotation
						JOINT RightForeArm
						{
							OFFSET -4.52172 -0.00000 -0.00000
							CHANNELS 3 Zrotation Yrotation Xrotation
							JOINT RightHand
							{
								OFFSET -2.89140 -0.00000 0.00000
								CHANNELS 3 Zrotation Yrotation Xrotation
								JOINT RightFingerBase
								{
									OFFSET 0 0 0
									CHANNELS 3 Zrotation Yrotation Xrotation
									JOINT RightHandIndex1
									{
										OFFSET -0.68054 -0.00000 0.00000
										CHANNELS 3 Zrotation Yrotation Xrotation
										End Site
										{
											OFFSET -0.54867 -0.00000 0.00000
										}
									}
								}
								JOINT RThumb
								{
									OFFSET 0 0 0
									CHANNELS 3 Zrotation Yrotation Xrotation
									End Site
									{
										OFFSET -0.55705 -0.00000 0.55705
									}
								}
							}
						}
					}
				}
			}
		}
	}
}
MOTION
Frames: 11
Frame Time: .0083333
1.7404 15.1713 -36.8629 -526.5710 84.6368 559.2040 0.0000 0.0000 0.0000 -12.8006 -16.8730 -33.8885 8.5374 16.5006 54.4760 0.9929 8.3924 -23.6343 1.5612 -7.8850 -22.3653 0.0000 0.0000 0.0000 38.9302 19.6753 6.1906 -0.7479 -5.5238 15.4088 1.2602 -23.2969 -22.7194 -1.2204 -7.0072 19.7367 0.7635 1.6485 8.5795 -0.3907 2.2833 -3.5402 -1.2038 1.0620 -8.5225 -12.6372 -8.2327 -1.6958 16.3057 -11.4507 4.6043 6.5408 -5.4940 3.3361 0.0000 -0.0000 0.0000 -81.6971 25.9766 28.3152 23.5382 -34.6721 -7.4422 -0.0000 -0.0000 13.7281 -4.9768 -27.8206 2.3273 -7.1250 0.0000 -0.0000 -20.6131 3.5225 20.7205 0.0000 -0.0000 0.0000 80.6032 1.5660 37.9958 -21.4651 32.3672 -6.2971 0.0000 0.0000 17.1635 -16.9109 -52.7995 13.6131 7.1250 -0.0000 -0.0000 -11.2410 7.5828 -170.1441
1.8947 15.1756 -36.8804 -527.3080 85.1729 558.2910 0.0000 0.0000 0.0000 -12.9891 -17.6790 -34.0340 7.8340 15.9958 51.9624 1.0381 8.7471 -24.2837 1.4185 -7.5322 -21.3020 0.0000 0.0000 0.0000 38.7338 18.4650 7.2123 -0.6432 -5.1307 14.2817 1.2212 -23.0818 -22.6641 -0.6247 -5.0577 14.0732 0.4494 1.7409 8.8546 -0.2822 2.3771 -3.4850 -0.9365 1.1263 -8.6387 -12.8187 -8.0875 -1.6071 16.2147 -11.2395 4.4872 6.5634 -5.4041 3.2599 0.0000 -0.0000 0.0000 -82.2021 26.4452 28.3686 23.3931 -34.5159 -7.3598 -0.0000 -0.0000 13.9258 -5.3053 -27.6497 2.4675 -7.1250 0.0000 -0.0000 -20.8036 3.6946 20.8713 0.0000 -0.0000 0.0000 80.5116 2.4669 38.5189 -21.8194 32.7723 -6.4878 0.0000 0.0000 17.2327 -17.2547 -52.8524 13.9053 7.1250 -0.0000 -0.0000 -11.1101 7.4462 -170.2332
2.0505 15.1706 -36.8961 -527.9110 85.7382 557.6310 0.0000 0.0000 0.0000 -13.1130 -18.3993 -34.2370 7.1065 15.4209 49.2761 1.0034 9.4092 -24.5276 1.6011 -7.9804 -22.6545 0.0000 0.0000 0.0000 38.8818 18.6654 8.8172 -0.5499 -4.7503 13.1978 1.3587 -23.5692 -22.2359 -0.7052 -5.3675 14.9597 0.3915 1.7246 8.8296 -0.3288 2.3422 -3.3683 -0.9438 1.1120 -8.4985 -12.8370 -7.9040 -1.7695 16.2112 -10.9696 4.4492 6.5806 -5.2659 3.2365 -0.0000 -0.0000 0.0000 -82.6620 26.7705 28.0148 23.1873 -34.2930 -7.2436 -0.0000 -0.0000 14.1496 -5.4822 -27.6743 2.5523 -7.1250 0.0000 -0.0000 -20.9004 3.6773 20.9908 -0.0000 -0.0000 0.0000 80.6832 3.5038 39.5145 -22.2154 33.2196 -6.7035 0.0000 0.0000 17.1629 -17.2745 -52.7514 13.9037 7.1250 -0.0000 -0.0000 -11.0879 7.5342 -170.2730
2.2120 15.1793 -36.9099 -526.6790 86.2389 558.7850 0.0000 0.0000 0.0000 -13.0182 -19.1942 -34.2092 6.3579 14.7664 46.4017 1.0215 9.5233 -24.7667 1.6068 -7.9941 -22.6961 0.0000 0.0000 0.0000 38.1928 15.7202 8.7887 -0.4619 -4.3596 12.0906 0.9478 -20.8641 -20.9062 -0.6814 -5.2780 14.7033 0.3947 1.7321 8.7966 -0.2754 2.3548 -3.2545 -0.8871 1.1206 -8.3581 -12.8680 -7.8145 -1.9394 16.0287 -10.8161 4.3899 6.5332 -5.1917 3.2157 -0.0000 -0.0000 0.0000 -83.1619 27.0216 27.7718 22.9615 -34.0467 -7.1168 -0.0000 -0.0000 14.3555 -5.7099 -27.5250 2.6457 -7.1250 0.0000 -0.0000 -21.0343 3.8248 21.0855 -0.0000 -0.0000 0.0000 80.6185 4.4876 40.8305 -22.6182 33.6686 -6.9254 0.0000 0.0000 16.8204 -16.6768 -52.9778 13.4513 7.1250 -0.0000 -0.0000 -11.3592 7.4777 -170.0122
2.3753 15.1850 -36.9245 -524.2990 86.7058 561.1080 0.0000 0.0000 0.0000 -12.8220 -20.0329 -34.1400 5.6280 14.0579 43.4700 1.0293 9.4393 -24.7611 1.5538 -7.8673 -22.3119 0.0000 0.0000 0.0000 37.8178 13.7563 9.3995 -0.3691 -3.9026 10.8027 0.6851 -19.0293 -20.2800 -0.7284 -5.4532 15.2059 0.4104 1.8306 8.7525 -0.2101 2.4926 -3.1943 -0.8455 1.1895 -8.2678 -12.9017 -7.6962 -1.9854 15.8910 -10.6450 4.4229 6.5064 -5.1102 3.2013 -0.0000 0.0000 0.0000 -83.3468 27.2976 28.1286 22.7906 -33.8590 -7.0213 -0.0000 -0.0000 14.3235 -5.7150 -27.2193 2.6209 -7.1250 0.0000 -0.0000 -21.0536 4.1122 20.9881 -0.0000 0.0000 0.0000 80.6605 5.0963 42.0702 -23.4128 34.5371 -7.3710 0.0000 0.0000 15.9321 -18.2504 -54.9683 15.1105 7.1250 -0.0000 -0.0000 -11.0364 5.2489 -169.8247
2.5383 15.1931 -36.9398 -523.2170 87.1935 562.2010 0.0000 0.0000 0.0000 -12.6543 -20.9870 -34.0723 4.9467 13.3235 40.5918 0.9847 9.6986 -24.6135 1.5291 -7.8073 -22.1302 0.0000 0.0000 0.0000 37.4198 13.0537 10.6416 -0.2538 -3.2412 8.9510 0.7892 -18.9969 -18.8582 -0.5894 -4.9155 13.6677 0.3835 1.8811 8.6762 -0.2338 2.5548 -3.1806 -0.8619 1.2212 -8.2078 -12.7104 -7.5843 -1.9557 15.7035 -10.4838 4.3604 6.4298 -5.0349 3.1329 0.0000 0.0000 0.0000 -83.4471 27.6391 28.4465 22.6392 -33.6919 -6.9371 -0.0000 -0.0000 14.2270 -6.0648 -27.0516 2.7664 -7.1250 0.0000 -0.0000 -21.2573 4.2797 21.1533 0.0000 0.0000 0.0000 80.6956 5.7658 43.1116 -23.8448 34.9998 -7.6174 0.0000 0.0000 15.2176 -19.4393 -54.4437 16.0199 7.1250 -0.0000 -0.0000 -10.5010 5.4183 -170.3707
2.7007 15.2026 -36.9578 -520.0200 87.6887 565.4770 0.0000 0.0000 0.0000 -12.2054 -22.2374 -34.0164 4.3343 12.5924 37.8614 1.0229 9.8226 -25.0224 1.3033 -7.2323 -20.4054 0.0000 0.0000 0.0000 37.2197 12.2779 12.2208 -0.1300 -2.3241 6.4023 0.9606 -19.2201 -16.7802 -0.3678 -3.8955 10.7828 0.6155 1.8820 8.5022 -0.3859 2.5713 -3.1672 -1.1474 1.2145 -8.0745 -12.4192 -7.4175 -1.8850 15.6806 -10.2521 4.1938 6.3968 -4.9209 3.0218 0.0000 -0.0000 0.0000 -83.4350 27.8864 28.3616 22.4358 -33.4661 -6.8246 -0.0000 -0.0000 14.4617 -6.9156 -27.2289 3.1764 -7.1250 0.0000 -0.0000 -21.7176 4.1345 21.7523 0.0000 -0.0000 0.0000 80.9130 6.4357 44.2162 -24.1809 35.3549 -7.8110 0.0000 0.0000 14.3323 -20.8415 -52.4325 16.7913 7.1250 -0.0000 -0.0000 -9.6047 6.8833 -171.4922
2.8608 15.1879 -36.9780 -504.4050 88.1733 581.1770 0.0000 0.0000 0.0000 -11.2360 -23.6904 -34.0210 3.8113 11.9049 35.3965 1.0411 10.3544 -25.6080 1.4363 -7.5773 -21.4375 0.0000 0.0000 0.0000 37.6115 10.7785 16.1868 -0.0006 -0.1641 0.4507 1.0066 -18.7293 -14.4411 -0.6163 -5.0244 13.9782 0.8654 2.0157 8.3534 -0.2732 2.7877 -3.1870 -1.1955 1.3118 -7.9989 -12.3932 -7.2749 -1.8147 15.6635 -10.0515 4.0735 6.4056 -4.8270 2.9433 -0.0000 0.0000 0.0000 -83.7869 28.0099 27.9381 22.1173 -33.1094 -6.6498 -0.0000 -0.0000 15.1039 -7.6430 -27.5908 3.5564 -7.1250 0.0000 -0.0000 -22.0941 3.8102 22.3392 -0.0000 0.0000 0.0000 80.9826 6.8451 44.9181 -24.7640 35.9618 -8.1509 0.0000 0.0000 14.1869 -20.6447 -51.5051 16.4298 7.1250 -0.0000 -0.0000 -9.5232 7.7922 -171.7380
3.0261 15.1825 -36.9926 -478.7500 88.4465 606.8130 0.0000 0.0000 0.0000 -10.0617 -25.5034 -33.7674 3.3658 11.2649 33.1787 1.0285 11.5094 -26.5044 1.8724 -8.5951 -24.5367 0.0000 0.0000 0.0000 37.9011 10.4422 17.1236 0.0000 0.0000 -0.0000 0.9968 -18.5827 -14.1734 -0.6006 -4.9610 13.7973 1.1193 2.1923 8.2296 -0.1428 3.0611 -3.1375 -1.2337 1.4382 -7.8616 -12.4311 -7.1888 -1.8170 15.6725 -9.9296 4.0367 6.4237 -4.7680 2.9177 0.0000 0.0000 0.0000 -84.0784 28.0993 27.8452 21.8839 -32.8456 -6.5228 -0.0000 -0.0000 15.4662 -7.7710 -27.5498 3.6116 -7.1250 0.0000 -0.0000 -22.1667 3.8509 22.4079 0.0000 0.0000 0.0000 80.9301 7.5396 45.7128 -25.4306 36.6409 -8.5456 0.0000 0.0000 14.4893 -18.7733 -52.3398 15.0608 7.1250 -0.0000 -0.0000 -10.4227 7.5246 -170.8757
3.1927 15.1813 -37.0052 -454.6730 88.4401 630.9300 0.0000 0.0000 0.0000 -8.5833 -28.0941 -33.4955 3.0035 10.7007 31.2771 1.1831 12.2236 -28.2559 1.6087 -7.9985 -22.7095 0.0000 0.0000 0.0000 38.1087 10.1122 17.7205 0.0000 0.0000 -0.0000 0.9795 -18.3928 -13.9319 -0.4468 -4.2886 11.8901 1.3589 2.3248 8.0526 -0.1369 3.2635 -3.1193 -1.3816 1.5279 -7.7216 -12.2602 -7.1159 -1.8422 15.5725 -9.8285 4.0535 6.3702 -4.7160 2.8983 0.0000 0.0000 0.0000 -84.0657 28.2735 28.0769 21.7868 -32.7352 -6.4702 -0.0000 -0.0000 15.5989 -7.7432 -27.3706 3.5770 -7.1250 0.0000 -0.0000 -22.1631 4.0182 22.3297 0.0000 0.0000 0.0000 81.0826 8.0308 46.3676 -26.0097 37.2183 -8.8935 0.0000 0.0000 14.6193 -18.3366 -52.3514 14.7037 7.1250 -0.0000 -0.0000 -10.6013 7.6286 -170.7357
3.3576 15.1780 -37.0194 -438.6040 88.2382 647.0950 0.0000 0.0000 0.0000 -6.6209 -31.7211 -33.1727 2.7043 10.2002 29.6275 1.4022 13.5384 -30.8609 1.0917 -6.6400 -18.6531 0.0000 0.0000 0.0000 38.2306 9.7076 18.1830 0.0000 0.0000 -0.0000 0.9267 -18.0692 -14.0791 -0.4405 -4.2589 11.8062 1.5905 2.4021 7.8733 -0.1407 3.3904 -3.1360 -1.5241 1.5806 -7.6185 -11.9788 -7.0478 -1.8924 15.4256 -9.7315 4.0644 6.2824 -4.6642 2.8742 -0.0000 -0.0000 0.0000 -84.0556 28.3719 28.0829 21.6637 -32.5949 -6.4038 -0.0000 -0.0000 15.9306 -8.0066 -27.2034 3.6792 -7.1250 0.0000 -0.0000 -22.3184 4.1789 22.4431 -0.0000 -0.0000 0.0000 81.3341 8.3620 47.0967 -26.6928 37.8846 -9.3098 0.0000 0.0000 14.5243 -18.3158 -53.0610 14.8197 7.1250 -0.0000 -0.0000 -10.7159 6.9799 -170.4937
